<svg width="9" height="8" viewBox="0 0 9 8" fill="none" xmlns="http://www.w3.org/2000/svg">
<path d="M1.87109 8C1.62175 8 1.39442 7.94133 1.18909 7.824C0.991086 7.69933 0.833419 7.538 0.716086 7.34C0.598753 7.13467 0.540086 6.911 0.540086 6.669V1.422C0.540086 1.17267 0.598753 0.949 0.716086 0.751C0.833419 0.545666 0.991086 0.384333 1.18909 0.267C1.39442 0.142333 1.62175 0.0799997 1.87109 0.0799997H7.20609C7.44809 0.0799997 7.66809 0.142333 7.86609 0.267C8.07142 0.384333 8.23275 0.545666 8.35009 0.751C8.47475 0.949 8.53709 1.17267 8.53709 1.422V6.669C8.53709 6.911 8.47475 7.13467 8.35009 7.34C8.23275 7.538 8.07142 7.69933 7.86609 7.824C7.66809 7.94133 7.44809 8 7.20609 8H1.87109ZM1.55209 7.098H7.20609C7.32342 7.098 7.42242 7.05767 7.50309 6.977C7.59109 6.889 7.63509 6.78633 7.63509 6.669V2.082L1.55209 7.098ZM1.44209 6.009L7.51409 0.993H1.87109C1.75375 0.993 1.65109 1.037 1.56309 1.125C1.48242 1.20567 1.44209 1.30467 1.44209 1.422V6.009Z" fill="#141820"/>
</svg>
