<svg width="8" height="71" viewBox="0 0 8 71" fill="none" xmlns="http://www.w3.org/2000/svg">
<path d="M8 70.362L0.0800035 70.362L0.0800032 63.135L0.971003 63.135L0.971003 69.471L3.589 69.471L3.589 64.378L4.491 64.378L4.491 69.471L8 69.471L8 70.362ZM8 62.4128L1.4 62.4128C1.158 62.4128 0.938003 62.3541 0.740003 62.2368C0.53467 62.1194 0.373336 61.9618 0.256003 61.7638C0.13867 61.5584 0.0800031 61.3348 0.0800031 61.0928L0.0800028 55.8128C0.0800028 55.5708 0.138669 55.3508 0.256003 55.1528C0.373336 54.9474 0.53467 54.7861 0.740003 54.6688C0.938003 54.5514 1.158 54.4928 1.4 54.4928L8 54.4928L8 55.3838L5.107 55.3838L5.107 61.5218L8 61.5218L8 62.4128ZM4.216 61.5218L4.216 55.3838L1.4 55.3838C1.28267 55.3838 1.18367 55.4278 1.103 55.5158C1.015 55.5964 0.971003 55.6954 0.971003 55.8128L0.971003 61.0928C0.971003 61.2101 1.015 61.3128 1.103 61.4008C1.18367 61.4814 1.28267 61.5218 1.4 61.5218L4.216 61.5218ZM8 51.9195C8 52.1615 7.94134 52.3851 7.824 52.5905C7.70667 52.7885 7.549 52.9461 7.351 53.0635C7.14567 53.1808 6.922 53.2395 6.68 53.2395L1.4 53.2395C1.158 53.2395 0.938003 53.1808 0.740003 53.0635C0.534669 52.9461 0.373336 52.7885 0.256002 52.5905C0.138669 52.3851 0.0800027 52.1615 0.0800027 51.9195L0.0800024 45.3415L0.971002 45.3415L0.971002 51.9195C0.971002 52.0368 1.015 52.1395 1.103 52.2275C1.18367 52.3081 1.28267 52.3485 1.4 52.3485L6.68 52.3485C6.79734 52.3485 6.9 52.3081 6.988 52.2275C7.06867 52.1395 7.109 52.0368 7.109 51.9195L7.109 45.3415L8 45.3415L8 51.9195ZM8 44.1725L0.0800023 44.1725L0.080002 36.9455L0.971002 36.9455L0.971002 43.2815L3.589 43.2815L3.589 38.1885L4.491 38.1885L4.491 43.2815L7.109 43.2815L7.109 36.9455L8 36.9455L8 44.1725ZM8 35.7397L0.080002 35.7397L0.0800017 29.4807C0.0800017 29.2387 0.138668 29.0187 0.256001 28.8207C0.373335 28.6153 0.534668 28.454 0.740002 28.3367C0.938002 28.2193 1.158 28.1607 1.4 28.1607L3.083 28.1607C3.18567 28.1607 3.28833 28.1753 3.391 28.2047C3.48634 28.2267 3.578 28.2597 3.666 28.3037C3.908 28.1423 4.117 28.0213 4.293 27.9407C4.469 27.86 4.64867 27.8197 4.832 27.8197L6.68 27.8197C6.922 27.8197 7.14567 27.8783 7.351 27.9957C7.549 28.113 7.70667 28.2743 7.824 28.4797C7.94134 28.6777 8 28.8977 8 29.1397L8 35.7397ZM7.109 34.4197L7.109 29.1397C7.109 29.0223 7.06867 28.9233 6.988 28.8427C6.9 28.7547 6.79734 28.7107 6.68 28.7107L4.832 28.7107C4.71467 28.7107 4.61567 28.7547 4.535 28.8427C4.447 28.9233 4.403 29.0223 4.403 29.1397L4.403 34.4197C4.403 34.537 4.447 34.6397 4.535 34.7277C4.61567 34.8083 4.71467 34.8487 4.832 34.8487L6.68 34.8487C6.79734 34.8487 6.9 34.8083 6.988 34.7277C7.06867 34.6397 7.109 34.537 7.109 34.4197ZM3.512 34.4197L3.512 29.4807C3.512 29.3633 3.47167 29.2643 3.391 29.1837C3.303 29.103 3.20034 29.0627 3.083 29.0627L1.4 29.0627C1.28267 29.0627 1.18367 29.103 1.103 29.1837C1.015 29.2643 0.971001 29.3633 0.971001 29.4807L0.971002 34.4197C0.971002 34.537 1.015 34.6397 1.103 34.7277C1.18367 34.8083 1.28267 34.8487 1.4 34.8487L3.083 34.8487C3.20034 34.8487 3.303 34.8083 3.391 34.7277C3.47167 34.6397 3.512 34.537 3.512 34.4197ZM8 25.3223C8 25.5643 7.94134 25.788 7.824 25.9933C7.70667 26.1913 7.549 26.349 7.351 26.4663C7.14567 26.5837 6.922 26.6423 6.68 26.6423L1.4 26.6423C1.158 26.6423 0.938002 26.5837 0.740002 26.4663C0.534668 26.349 0.373335 26.1913 0.256001 25.9933C0.138668 25.788 0.0800015 25.5643 0.0800015 25.3223L0.0800013 20.0423C0.0800013 19.8003 0.138668 19.5803 0.256001 19.3823C0.373335 19.177 0.534668 19.0157 0.740001 18.8983C0.938001 18.781 1.158 18.7223 1.4 18.7223L6.68 18.7223C6.922 18.7223 7.14567 18.781 7.351 18.8983C7.549 19.0157 7.70667 19.177 7.824 19.3823C7.94133 19.5803 8 19.8003 8 20.0423L8 25.3223ZM7.109 25.3223L7.109 20.0423C7.109 19.925 7.06867 19.826 6.988 19.7453C6.9 19.6573 6.79733 19.6133 6.68 19.6133L1.4 19.6133C1.28267 19.6133 1.18367 19.6573 1.103 19.7453C1.015 19.826 0.971001 19.925 0.971001 20.0423L0.971001 25.3223C0.971001 25.4397 1.015 25.5423 1.103 25.6303C1.18367 25.711 1.28267 25.7513 1.4 25.7513L6.68 25.7513C6.79734 25.7513 6.9 25.711 6.988 25.6303C7.06867 25.5423 7.109 25.4397 7.109 25.3223ZM8 16.213C8 16.455 7.94133 16.6786 7.824 16.884C7.70667 17.082 7.549 17.2396 7.351 17.357C7.14567 17.4743 6.922 17.533 6.68 17.533L1.4 17.533C1.158 17.533 0.938001 17.4743 0.740001 17.357C0.534668 17.2396 0.373334 17.082 0.256001 16.884C0.138668 16.6786 0.0800011 16.455 0.0800011 16.213L0.0800009 10.933C0.0800009 10.691 0.138667 10.471 0.256001 10.273C0.373334 10.0676 0.534668 9.90629 0.740001 9.78895C0.938001 9.67162 1.158 9.61295 1.4 9.61295L6.68 9.61295C6.922 9.61295 7.14567 9.67162 7.351 9.78895C7.549 9.90629 7.70667 10.0676 7.824 10.273C7.94133 10.471 8 10.691 8 10.933L8 16.213ZM7.109 16.213L7.109 10.933C7.109 10.8156 7.06867 10.7166 6.988 10.636C6.9 10.548 6.79733 10.504 6.68 10.504L1.4 10.504C1.28267 10.504 1.18367 10.548 1.103 10.636C1.015 10.7166 0.971001 10.8156 0.971001 10.933L0.971001 16.213C0.971001 16.3303 1.015 16.433 1.103 16.521C1.18367 16.6016 1.28267 16.642 1.4 16.642L6.68 16.642C6.79733 16.642 6.9 16.6016 6.988 16.521C7.06867 16.433 7.109 16.3303 7.109 16.213ZM8 8.39058L0.0800008 8.39058L0.0800007 7.48858L3.589 7.48858L3.589 4.93658L0.0800005 1.98858L0.0800004 0.844577L0.0910003 0.844577L4.04 4.15558L7.989 0.833577L8 0.833577L8 1.98858L4.491 4.93658L4.491 7.48858L8 7.48858L8 8.39058Z" fill="#80858F"/>
</svg>
