<svg width="12" height="18" viewBox="0 0 12 18" fill="none" xmlns="http://www.w3.org/2000/svg">
<path d="M9.68901 16.0882L9.69341 16.0838C10.4711 15.3001 11.026 14.3234 11.3009 13.2541C11.5758 12.1848 11.5608 11.0616 11.2575 10L9.80291 11.4546C9.66571 11.5919 9.50271 11.7008 9.32331 11.7751C9.14401 11.8494 8.95171 11.8877 8.75761 11.8877C8.56351 11.8877 8.37121 11.8494 8.19191 11.7751C8.01251 11.7008 7.84951 11.5919 7.71231 11.4546C7.45141 11.1938 7.29741 10.8448 7.28071 10.4763C7.26391 10.1078 7.38551 9.7463 7.62171 9.4629C8.10801 8.8794 8.41361 8.1667 8.50121 7.4122C8.58871 6.6577 8.45451 5.8941 8.11481 5.2147L5.75751 0.5L5.39501 4.4875C5.35151 4.9657 5.21191 5.4303 4.98451 5.8532C4.75711 6.2762 4.44661 6.6488 4.07171 6.9489L2.01091 8.5976C1.46391 9.0352 1.02231 9.5902 0.718812 10.2216C0.415412 10.853 0.257812 11.5445 0.257812 12.2451V12.8125C0.257812 13.4973 0.408412 14.1736 0.698812 14.7938C0.989213 15.4139 1.41251 15.9626 1.93851 16.4009C2.79021 17.1106 3.86651 17.4943 4.97501 17.4834L6.41991 17.4691C7.64881 17.4568 8.82341 16.9606 9.68901 16.0882Z" fill="#FDD04A"/>
</svg>
