<svg width="8" height="76" viewBox="0 0 8 76" fill="none" xmlns="http://www.w3.org/2000/svg">
<path d="M8 75.274L0.0800035 75.274L0.0800034 74.372L8 74.372L8 75.274ZM8 73.0315L0.0800034 73.0315L0.0800033 71.8105L6.988 66.0025L0.0800031 66.0025L0.080003 65.1115L8 65.1115L8 66.3325L1.092 72.1405L8 72.1405L8 73.0315ZM8 62.6141C8 62.8561 7.94134 63.0798 7.824 63.2851C7.70667 63.4831 7.549 63.6408 7.351 63.7581C7.14567 63.8754 6.922 63.9341 6.68 63.9341L6.372 63.9341L6.372 63.0431L6.68 63.0431C6.79734 63.0431 6.9 63.0028 6.988 62.9221C7.06867 62.8341 7.109 62.7314 7.109 62.6141L7.109 57.3341C7.109 57.2168 7.06867 57.1178 6.988 57.0371C6.9 56.9491 6.79734 56.9051 6.68 56.9051L4.909 56.9051C4.79167 56.9051 4.69267 56.9491 4.612 57.0371C4.53134 57.1178 4.491 57.2168 4.491 57.3341L4.491 62.6141C4.491 62.8561 4.43234 63.0798 4.315 63.2851C4.19034 63.4831 4.029 63.6408 3.831 63.7581C3.633 63.8754 3.413 63.9341 3.171 63.9341L1.4 63.9341C1.158 63.9341 0.938003 63.8755 0.740003 63.7581C0.53467 63.6408 0.373336 63.4831 0.256003 63.2851C0.13867 63.0798 0.0800029 62.8561 0.0800029 62.6141L0.0800027 57.3341C0.0800027 57.0921 0.138669 56.8721 0.256002 56.6741C0.373336 56.4688 0.534669 56.3074 0.740003 56.1901C0.938003 56.0728 1.158 56.0141 1.4 56.0141L1.708 56.0141L1.708 56.9051L1.4 56.9051C1.28267 56.9051 1.18367 56.9491 1.103 57.0371C1.015 57.1178 0.971002 57.2168 0.971002 57.3341L0.971003 62.6141C0.971003 62.7315 1.015 62.8341 1.103 62.9221C1.18367 63.0028 1.28267 63.0431 1.4 63.0431L3.171 63.0431C3.28834 63.0431 3.38734 63.0028 3.468 62.9221C3.54867 62.8341 3.589 62.7314 3.589 62.6141L3.589 57.3341C3.589 57.0921 3.65134 56.8721 3.776 56.6741C3.89334 56.4688 4.051 56.3074 4.249 56.1901C4.447 56.0728 4.667 56.0141 4.909 56.0141L6.68 56.0141C6.922 56.0141 7.14567 56.0728 7.351 56.1901C7.549 56.3074 7.70667 56.4688 7.824 56.6741C7.94134 56.8721 8 57.0921 8 57.3341L8 62.6141ZM8 51.7102L0.971002 51.7102L0.971002 55.2302L0.0800026 55.2302L0.0800022 47.3102L0.971002 47.3102L0.971002 50.8192L8 50.8192L8 51.7102ZM8 46.4655L1.4 46.4655C1.158 46.4655 0.938002 46.4068 0.740002 46.2895C0.534669 46.1722 0.373335 46.0145 0.256002 45.8165C0.138669 45.6112 0.0800022 45.3875 0.0800022 45.1455L0.0800019 39.8655C0.0800019 39.6235 0.138668 39.4035 0.256002 39.2055C0.373335 39.0002 0.534669 38.8388 0.740002 38.7215C0.938002 38.6042 1.158 38.5455 1.4 38.5455L8 38.5455L8 39.4365L5.107 39.4365L5.107 45.5745L8 45.5745L8 46.4655ZM4.216 45.5745L4.216 39.4365L1.4 39.4365C1.28267 39.4365 1.18367 39.4805 1.103 39.5685C1.015 39.6492 0.971002 39.7482 0.971002 39.8655L0.971002 45.1455C0.971002 45.2628 1.015 45.3655 1.103 45.4535C1.18367 45.5342 1.28267 45.5745 1.4 45.5745L4.216 45.5745ZM8 35.9722C8 36.2142 7.94134 36.4379 7.824 36.6432C7.70667 36.8412 7.549 36.9989 7.351 37.1162C7.14567 37.2335 6.922 37.2922 6.68 37.2922L1.4 37.2922C1.158 37.2922 0.938002 37.2335 0.740002 37.1162C0.534669 36.9989 0.373335 36.8412 0.256001 36.6432C0.138668 36.4379 0.0800018 36.2142 0.0800018 35.9722L0.0800015 30.6922C0.0800015 30.4502 0.138668 30.2302 0.256001 30.0322C0.373335 29.8269 0.534668 29.6655 0.740001 29.5482C0.938002 29.4309 1.158 29.3722 1.4 29.3722L1.719 29.3722L1.719 30.2632L1.4 30.2632C1.28267 30.2632 1.18367 30.3072 1.103 30.3952C1.015 30.4759 0.971001 30.5749 0.971001 30.6922L0.971001 35.9722C0.971001 36.0895 1.015 36.1922 1.103 36.2802C1.18367 36.3609 1.28267 36.4012 1.4 36.4012L6.68 36.4012C6.79734 36.4012 6.9 36.3609 6.988 36.2802C7.06867 36.1922 7.109 36.0895 7.109 35.9722L7.109 30.6922C7.109 30.5749 7.06867 30.4759 6.988 30.3952C6.9 30.3072 6.79734 30.2632 6.68 30.2632L4.722 30.2632L4.722 32.2212L3.82 32.2212L3.82 29.3722L6.68 29.3722C6.922 29.3722 7.14567 29.4309 7.351 29.5482C7.549 29.6655 7.70667 29.8269 7.824 30.0322C7.94134 30.2302 8 30.4502 8 30.6922L8 35.9722ZM8 21.4733L4.92 24.0583L4.92 22.8923L7.989 20.2963L8 20.2963L8 21.4733ZM8 28.1613L0.0910013 28.1613L0.091001 21.5613C0.091001 21.3193 0.153334 21.0993 0.278001 20.9013C0.395334 20.696 0.553001 20.5347 0.751001 20.4173C0.949001 20.3 1.169 20.2413 1.411 20.2413L3.732 20.2413C3.974 20.2413 4.194 20.3 4.392 20.4173C4.59 20.5347 4.75133 20.696 4.876 20.9013C4.99333 21.0993 5.052 21.3193 5.052 21.5613L5.052 27.2703L8 27.2703L8 28.1613ZM4.15 26.8413L4.15 21.5613C4.15 21.444 4.10967 21.345 4.029 21.2643C3.94833 21.1763 3.84933 21.1323 3.732 21.1323L1.411 21.1323C1.29367 21.1323 1.19467 21.1763 1.114 21.2643C1.026 21.345 0.982001 21.444 0.982001 21.5613L0.982002 26.8413C0.982002 26.9587 1.026 27.0613 1.114 27.1493C1.19467 27.23 1.29367 27.2703 1.411 27.2703L3.732 27.2703C3.84933 27.2703 3.94833 27.23 4.029 27.1493C4.10967 27.0613 4.15 26.9587 4.15 26.8413ZM8 19.0622L1.4 19.0622C1.158 19.0622 0.938001 19.0035 0.740001 18.8862C0.534668 18.7689 0.373334 18.6112 0.256001 18.4132C0.138668 18.2079 0.080001 17.9842 0.080001 17.7422L0.0800007 12.4622C0.0800007 12.2202 0.138667 12.0002 0.256 11.8022C0.373334 11.5969 0.534667 11.4355 0.740001 11.3182C0.938001 11.2009 1.158 11.1422 1.4 11.1422L8 11.1422L8 12.0332L5.107 12.0332L5.107 18.1712L8 18.1712L8 19.0622ZM4.216 18.1712L4.216 12.0332L1.4 12.0332C1.28267 12.0332 1.18367 12.0772 1.103 12.1652C1.015 12.2459 0.971 12.3449 0.971 12.4622L0.971001 17.7422C0.971001 17.8595 1.015 17.9622 1.103 18.0502C1.18367 18.1309 1.28267 18.1712 1.4 18.1712L4.216 18.1712ZM8 9.88888L0.0800006 9.88888L0.0800006 8.66788L3.996 5.37888L0.0800003 2.08988L0.0800002 0.868882L8 0.868882L8 1.75988L1.092 1.75988L5.393 5.37888L1.092 8.99788L8 8.99788L8 9.88888Z" fill="#80858F"/>
</svg>
