<svg width="8" height="46" viewBox="0 0 8 46" fill="none" xmlns="http://www.w3.org/2000/svg">
<path d="M8.00001 42.6L1.61001 42.6L1.61001 45.8L0.800007 45.8L0.800007 38.6L1.61001 38.6L1.61001 41.79L8.00001 41.79L8.00001 42.6ZM8.00001 35.4421L0.800007 38.0621L0.800007 37.2021L6.58001 35.0921L0.800007 32.9921L0.800007 32.0121L6.58001 29.9021L0.800007 27.8121L0.800007 26.9321L8.00001 29.5521L8.00001 30.2621L1.85001 32.5021L8.00001 34.7421L8.00001 35.4421ZM8.00001 25.965L0.800006 25.965L0.800006 25.145L8.00001 25.145L8.00001 25.965ZM8.00001 21.0863L1.61001 21.0863L1.61001 24.2863L0.800006 24.2863L0.800006 17.0863L1.61001 17.0863L1.61001 20.2763L8.00001 20.2763L8.00001 21.0863ZM8.00001 15.1384C8.00001 15.3584 7.94667 15.5618 7.84001 15.7484C7.73334 15.9284 7.59001 16.0718 7.41001 16.1784C7.22334 16.2851 7.02001 16.3384 6.80001 16.3384L2.00001 16.3384C1.78001 16.3384 1.58001 16.2851 1.40001 16.1784C1.21334 16.0718 1.06667 15.9284 0.960006 15.7484C0.853339 15.5618 0.800006 15.3584 0.800006 15.1384L0.800006 9.15844L1.61001 9.15844L1.61001 15.1384C1.61001 15.2451 1.65001 15.3384 1.73001 15.4184C1.80334 15.4918 1.89334 15.5284 2.00001 15.5284L6.80001 15.5284C6.90667 15.5284 7.00001 15.4918 7.08001 15.4184C7.15334 15.3384 7.19001 15.2451 7.19001 15.1384L7.19001 9.15844L8.00001 9.15844L8.00001 15.1384ZM8.00001 8.10578L0.800006 8.10578L0.800006 7.29578L3.99001 7.29578L3.99001 1.54578L0.800005 1.54578L0.800005 0.725781L8.00001 0.72578L8.00001 1.54578L4.81001 1.54578L4.81001 7.29578L8.00001 7.29578L8.00001 8.10578Z" fill="#80858F"/>
</svg>
